<svg version="1.1" id="Layer_1" xmlns="http://www.w3.org/2000/svg" xmlns:xlink="http://www.w3.org/1999/xlink" x="0px" y="0px"
	 width="100%" viewBox="0 0 256 256" enable-background="new 0 0 256 256" xml:space="preserve">
<path fill="#000000" opacity="1.000000" stroke="none" 
	d="
M205.333130,231.401901 
	C195.411285,236.563141 186.007996,242.083817 175.026352,243.526901 
	C159.199326,245.606750 143.784317,244.662048 129.383087,236.839798 
	C127.926628,236.048676 126.377777,235.378891 124.802345,234.866318 
	C122.034302,233.965759 120.975586,232.137894 120.793091,229.272308 
	C119.954811,216.109741 126.042526,207.922379 139.042175,205.084412 
	C140.823608,204.695511 142.676926,204.646454 144.472183,204.308456 
	C152.248398,202.844345 155.716187,198.589661 155.870178,190.389969 
	C155.935867,186.892395 156.150482,183.386505 155.992477,179.898193 
	C155.674347,172.874374 152.520676,169.208588 145.666107,167.819412 
	C136.674164,165.997101 127.686668,167.533386 118.825943,168.670380 
	C112.436577,169.490250 108.846130,175.689453 109.940392,182.211166 
	C110.654503,186.467224 111.880806,190.635681 112.826141,194.854919 
	C114.720947,203.311951 112.589355,208.029816 105.825722,213.169540 
	C98.469231,218.759766 90.877579,222.584518 81.222252,222.592148 
	C72.118889,222.599335 63.061127,225.252670 53.882160,224.310257 
	C41.825478,223.072372 31.733641,218.580505 26.531687,206.528564 
	C23.881388,200.388336 25.535322,192.954514 30.702454,188.505188 
	C37.296497,182.827194 44.685177,181.407532 53.057522,183.445145 
	C62.151402,185.658356 62.932026,184.249054 64.578163,174.857117 
	C66.063980,166.379898 67.871689,157.901260 69.757553,149.472519 
	C73.829025,131.275436 77.114578,112.897858 80.210358,94.549782 
	C83.589798,74.520538 90.678879,55.770729 96.921082,36.716606 
	C100.886444,24.612455 111.640076,18.113886 124.295319,17.611929 
	C138.122406,17.063496 152.059204,16.803814 165.565521,19.281010 
	C175.680130,21.136131 185.389847,25.998442 191.945648,34.733044 
	C203.945145,50.720520 208.527512,69.322388 209.981506,88.858955 
	C211.524445,109.590843 213.597519,130.293900 214.015579,151.094528 
	C214.209717,160.753937 213.805222,170.426041 214.030167,180.084045 
	C214.352386,193.917892 213.151535,207.613785 211.218338,221.284302 
	C210.636627,225.397797 209.803497,229.189926 205.333130,231.401901 
M122.451836,158.713989 
	C130.238663,157.457840 138.063751,158.044876 145.868896,158.341507 
	C157.425751,158.780701 164.301666,164.949173 164.887192,173.112625 
	C165.716309,184.672623 166.030807,196.330902 162.532486,207.803772 
	C161.091431,212.529770 159.003189,214.103958 154.480453,213.465302 
	C148.522415,212.623978 142.817139,213.629242 137.563248,216.506012 
	C134.411896,218.231522 131.979416,220.987396 131.704773,224.641388 
	C131.487854,227.527542 133.661514,229.975830 136.231628,230.650925 
	C143.240173,232.491852 150.091354,235.422714 157.545044,234.995682 
	C168.534164,234.366104 179.271713,232.117859 189.668930,228.675079 
	C197.519073,226.075699 203.317017,221.158463 203.659103,211.906189 
	C203.874374,206.083862 204.454147,200.275208 204.679260,194.453018 
	C205.879089,163.423203 202.338684,132.600235 200.468658,101.708237 
	C199.283356,82.127594 195.732681,63.204063 184.777924,46.248131 
	C177.184387,34.494717 167.462448,27.305597 152.909058,28.074629 
	C150.775208,28.187387 148.613632,27.595257 146.460175,27.549112 
	C138.865692,27.386364 131.258606,25.994257 123.680077,27.342878 
	C118.157372,28.325661 113.341232,30.298126 110.388359,35.850719 
	C107.083542,42.065117 104.465019,48.564564 102.493431,55.197430 
	C97.769669,71.089264 92.470131,86.790047 88.647743,102.991356 
	C84.245689,121.649605 81.946243,140.627838 78.171989,159.358856 
	C76.105492,169.614487 75.845261,180.206970 72.323799,190.189499 
	C69.791489,197.368011 67.888222,197.981796 60.789429,195.598465 
	C53.663044,193.205856 46.259350,191.599838 39.079556,195.830551 
	C34.626984,198.454254 34.132320,201.590668 37.146057,205.671204 
	C40.049591,209.602524 44.281429,210.817719 48.615948,212.143600 
	C58.536026,215.178085 68.428619,213.011292 78.350067,212.326172 
	C86.767052,211.744934 94.125816,208.831711 100.510521,203.300186 
	C102.719795,201.386124 104.326279,199.155304 102.948677,196.397964 
	C100.418579,191.333817 100.385788,185.746674 99.114380,180.436981 
	C96.793541,170.744568 103.815277,161.112152 113.640198,159.820831 
	C116.278603,159.474060 118.917068,159.127853 122.451836,158.713989 
z"/>
<path fill="#000000" opacity="1.000000" stroke="none" 
	d="
M118.807266,48.466213 
	C134.868225,45.194565 150.511093,45.166061 166.086990,48.913239 
	C169.176712,49.656548 172.062515,51.080254 174.298691,53.405392 
	C182.764343,62.207886 182.825439,70.079735 170.126328,76.781418 
	C158.445374,82.945778 145.269058,84.085297 132.218704,82.875084 
	C124.479622,82.157394 117.579941,78.675987 112.316483,72.534279 
	C104.910889,63.893028 107.813965,52.368942 118.807266,48.466213 
M151.852768,63.675800 
	C157.025208,62.828541 162.513046,66.807755 167.708252,62.946503 
	C166.815033,58.967339 163.858444,57.375336 160.864182,56.842510 
	C149.715698,54.858658 138.439285,54.646381 127.158974,55.562820 
	C125.759666,55.676506 123.967033,55.910664 123.458488,57.616264 
	C122.928574,59.393528 123.847969,61.052094 125.194786,61.994297 
	C127.895515,63.883671 130.697449,65.739059 133.699677,67.057007 
	C136.994720,68.503487 140.406525,66.728203 144.175858,66.961395 
	C143.040161,65.685226 140.899094,66.286423 141.374939,64.054314 
	C144.447952,62.069481 147.734573,63.298798 151.852768,63.675800 
z"/>
</svg>